<?xml version="1.0" standalone="no"?>
<!DOCTYPE svg PUBLIC "-//W3C//DTD SVG 20010904//EN"
 "http://www.w3.org/TR/2001/REC-SVG-20010904/DTD/svg10.dtd">
<svg version="1.0" xmlns="http://www.w3.org/2000/svg"
 width="1600.000000pt" height="987.000000pt" viewBox="0 0 1600.000000 987.000000"
 preserveAspectRatio="xMidYMid meet">

<g transform="translate(0.000000,987.000000) scale(0.100000,-0.100000)"
fill="#ff0000d4" stroke="none">
<path d="M0 4935 l0 -4935 8000 0 8000 0 0 3230 c0 3071 -1 3229 -17 3223 -10
-3 -49 -20 -88 -38 -38 -18 -97 -45 -130 -59 -91 -41 -112 -51 -218 -100 -53
-25 -103 -46 -111 -46 -7 0 -19 -7 -26 -15 -7 -8 -17 -15 -23 -15 -6 0 -30 -9
-54 -20 -24 -11 -62 -29 -85 -40 -52 -23 -333 -134 -368 -145 -14 -4 -29 -11
-35 -15 -5 -4 -27 -13 -48 -20 -22 -7 -51 -18 -65 -26 -15 -8 -33 -14 -40 -14
-8 0 -28 -7 -45 -15 -35 -16 -98 -39 -167 -61 -25 -8 -58 -20 -75 -28 -16 -7
-57 -23 -90 -35 -33 -12 -73 -28 -90 -36 -16 -7 -61 -25 -100 -40 -38 -15 -83
-32 -100 -39 -37 -16 -84 -33 -155 -56 -30 -10 -68 -24 -85 -30 -16 -7 -39
-16 -50 -20 -99 -37 -163 -63 -177 -71 -10 -5 -59 -23 -110 -40 -51 -16 -103
-36 -117 -44 -44 -22 -153 -62 -219 -80 -35 -9 -99 -34 -142 -55 -66 -33 -117
-52 -274 -98 -10 -3 -44 -17 -75 -32 -31 -15 -78 -32 -106 -39 -27 -7 -59 -17
-70 -21 -11 -5 -87 -31 -170 -59 -197 -65 -250 -85 -310 -114 -27 -14 -79 -34
-115 -45 -36 -11 -78 -25 -95 -31 -16 -6 -66 -22 -110 -37 -44 -14 -92 -32
-107 -40 -14 -8 -34 -14 -43 -14 -16 0 -149 -43 -190 -61 -23 -10 -120 -44
-185 -64 -47 -15 -234 -78 -285 -96 -16 -6 -52 -17 -80 -24 -62 -17 -144 -45
-170 -58 -11 -5 -40 -16 -65 -23 -25 -7 -76 -24 -115 -39 -38 -14 -86 -30
-105 -36 -19 -5 -46 -16 -60 -23 -14 -8 -41 -17 -60 -21 -19 -4 -40 -11 -46
-16 -6 -5 -31 -15 -55 -23 -24 -8 -66 -23 -94 -34 -27 -11 -86 -34 -130 -51
-44 -18 -97 -41 -117 -51 -20 -11 -45 -20 -55 -20 -10 0 -27 -6 -38 -14 -11
-7 -31 -17 -45 -21 -24 -7 -60 -22 -154 -65 -24 -11 -47 -20 -51 -20 -4 0 -26
-9 -49 -19 -63 -30 -245 -101 -257 -101 -7 0 -74 -25 -150 -55 -76 -30 -145
-55 -154 -55 -8 0 -23 -4 -33 -9 -9 -5 -66 -29 -127 -52 -60 -23 -114 -46
-119 -51 -6 -4 -16 -8 -24 -8 -8 0 -28 -6 -45 -14 -49 -21 -153 -56 -167 -56
-7 0 -34 13 -59 29 -27 16 -86 38 -141 51 -52 12 -115 29 -140 37 -25 8 -61
18 -81 23 -19 5 -49 16 -65 25 -16 8 -38 15 -49 15 -11 0 -33 7 -49 15 -16 9
-57 22 -90 30 -34 7 -95 23 -136 35 -41 12 -97 28 -125 35 -56 15 -135 45
-180 69 -16 9 -36 16 -43 16 -8 0 -26 6 -40 13 -30 15 -95 45 -162 75 -48 21
-199 91 -265 122 -135 64 -222 84 -295 70 -53 -10 -115 -1 -225 33 -115 36
-196 69 -232 95 -17 12 -36 22 -42 22 -25 0 -316 103 -364 128 -29 15 -72 33
-97 41 -25 7 -55 17 -68 22 -13 5 -32 9 -44 9 -12 0 -51 13 -87 29 -36 16 -97
41 -136 54 -148 54 -386 141 -497 183 -75 28 -115 42 -233 80 -66 21 -155 55
-197 76 -43 21 -84 38 -92 38 -8 0 -54 13 -103 29 -48 17 -117 36 -153 44 -36
8 -119 38 -185 67 -129 56 -239 98 -351 135 -38 13 -92 35 -119 49 -26 14 -53
26 -59 26 -6 0 -38 11 -71 25 -33 13 -71 25 -85 25 -14 0 -45 11 -70 24 -25
13 -74 33 -110 46 -36 12 -105 41 -155 65 -49 23 -107 48 -127 54 -21 6 -53
16 -71 21 -18 6 -43 10 -55 10 -12 0 -22 4 -22 8 0 4 -26 16 -58 26 -31 9 -70
22 -87 28 -16 5 -39 11 -50 12 -20 1 -20 -5 -20 -1083 l0 -1083 24 -19 c13
-11 27 -19 32 -19 4 0 35 -16 69 -36 68 -41 138 -114 165 -171 10 -21 33 -70
51 -110 33 -69 34 -78 34 -189 0 -99 -4 -127 -26 -191 -42 -123 -117 -238
-189 -290 -56 -41 -78 -81 -66 -120 5 -15 17 -82 26 -148 20 -137 34 -209 62
-315 41 -158 84 -385 94 -497 4 -51 10 -97 14 -102 3 -6 10 -34 15 -63 5 -29
16 -84 25 -123 9 -38 23 -104 31 -145 8 -41 19 -95 24 -120 41 -192 48 -237
66 -387 l7 -52 -65 -30 c-36 -17 -71 -31 -77 -31 -7 0 -27 -6 -44 -14 -18 -8
-73 -28 -123 -45 -81 -28 -103 -31 -205 -31 -63 0 -132 5 -154 10 -22 5 -89
14 -150 20 -60 5 -141 17 -180 25 -38 8 -104 19 -146 23 -111 14 -209 63 -209
106 0 12 6 46 14 76 7 30 21 100 30 155 10 55 27 143 38 195 11 52 24 119 29
149 5 29 16 66 24 81 8 15 19 52 24 81 19 101 33 164 77 339 24 96 49 195 55
220 6 25 17 61 24 80 13 34 32 106 60 225 7 33 18 73 24 88 15 39 13 110 -4
182 -8 33 -15 74 -15 91 0 25 -8 38 -37 60 -76 57 -171 177 -188 237 -4 12
-16 42 -27 66 -27 60 -43 323 -22 356 8 12 23 47 33 78 39 112 98 171 229 227
73 32 112 78 112 135 0 24 5 66 10 92 7 32 8 159 1 388 -10 370 0 973 20 1232
11 145 10 167 -4 200 -9 23 -19 87 -23 163 -7 118 -10 163 -13 193 -1 12 -85
47 -112 47 -12 0 -112 36 -239 85 -19 8 -66 26 -105 40 -38 15 -92 37 -120 49
-27 13 -77 31 -110 41 -33 9 -87 27 -120 40 -33 12 -78 27 -100 34 -22 7 -85
30 -140 50 -55 21 -134 49 -175 63 -41 15 -100 36 -130 48 -84 33 -160 61
-215 80 -27 9 -51 24 -53 32 -2 9 26 29 82 56 46 23 88 42 93 42 4 0 30 11 57
25 27 14 64 25 82 25 18 0 53 6 76 14 24 7 84 26 133 41 50 15 113 35 140 45
28 11 64 22 80 26 17 4 39 13 50 20 11 8 26 14 33 14 8 0 28 7 45 15 36 16
100 40 167 61 25 8 54 18 65 24 11 5 142 50 290 100 354 118 384 128 422 146
17 7 36 14 42 14 6 0 28 9 48 20 21 11 45 20 53 20 9 0 24 6 35 13 11 7 58 28
105 46 47 18 89 37 95 42 5 5 16 9 25 9 9 0 32 9 53 19 20 10 49 22 64 25 16
4 42 13 58 20 41 19 232 91 277 106 21 6 40 16 43 21 4 5 16 9 28 9 12 0 39 9
60 20 20 11 42 20 48 20 7 0 30 8 53 19 23 10 68 28 101 40 33 12 77 31 97 41
20 11 42 20 49 20 6 0 31 9 55 20 24 11 64 29 88 40 24 11 46 20 50 20 4 0 26
8 49 19 50 22 225 91 232 91 2 0 37 16 77 34 40 19 107 47 148 62 41 14 89 32
105 39 82 34 266 96 313 105 30 5 59 13 65 17 14 9 127 49 177 64 19 5 51 16
70 23 19 8 76 26 125 41 50 15 104 34 120 41 17 7 44 16 60 20 17 4 35 10 40
14 6 4 48 22 95 40 47 17 92 36 101 40 9 5 58 23 110 40 52 17 106 38 121 46
14 8 34 14 43 14 9 0 31 7 48 14 32 15 72 29 242 87 50 16 104 36 122 44 17 8
35 15 41 15 8 0 37 12 159 66 17 8 34 14 38 14 4 0 21 7 38 14 18 8 73 31 122
52 50 20 108 45 130 55 72 32 118 51 230 91 61 22 128 47 149 55 22 8 63 25
91 39 29 13 55 24 59 24 4 0 36 11 72 25 35 14 94 37 132 51 37 14 81 31 97
38 72 33 106 46 115 46 5 0 33 11 62 24 60 27 122 49 188 65 25 7 54 16 65 20
11 4 70 27 130 50 61 23 119 46 130 50 71 30 106 42 155 57 30 9 59 21 64 25
21 19 112 9 186 -20 41 -15 104 -38 140 -50 36 -12 73 -26 82 -31 10 -6 24
-10 33 -10 8 0 29 -6 47 -14 55 -24 101 -42 138 -56 44 -15 58 -21 143 -59 38
-17 73 -31 78 -31 17 0 182 -57 234 -80 73 -33 148 -61 345 -126 41 -14 85
-32 132 -55 10 -5 26 -9 35 -9 10 0 27 -7 37 -15 11 -8 28 -15 38 -15 10 0 26
-4 36 -10 9 -5 33 -15 52 -23 19 -8 64 -26 100 -41 36 -14 73 -26 82 -26 9 0
19 -4 23 -9 3 -5 20 -13 38 -16 17 -4 55 -17 82 -30 47 -22 129 -52 240 -90
28 -10 64 -23 80 -30 57 -24 211 -83 295 -115 47 -17 89 -36 94 -41 6 -5 17
-9 25 -9 9 -1 34 -9 56 -20 22 -11 44 -19 49 -20 5 0 27 -8 50 -19 23 -10 66
-29 96 -41 30 -12 74 -31 98 -41 23 -10 51 -19 61 -19 10 0 24 -6 30 -14 7 -8
24 -17 39 -21 27 -6 94 -34 145 -60 16 -8 33 -15 38 -15 6 0 35 -11 65 -25 30
-14 60 -25 67 -25 7 0 21 -7 31 -15 11 -8 26 -15 34 -15 13 0 102 -38 154 -66
14 -8 32 -14 38 -14 7 0 32 -9 56 -20 24 -11 64 -29 88 -40 24 -11 48 -20 55
-20 6 0 28 -9 48 -20 21 -11 43 -20 50 -20 7 0 32 -9 55 -19 24 -11 93 -39
153 -62 61 -23 128 -50 151 -61 22 -10 48 -18 57 -18 9 0 18 -4 22 -9 3 -5 30
-17 60 -25 30 -9 57 -21 60 -26 3 -6 14 -10 23 -10 10 0 35 -9 57 -20 22 -11
44 -20 50 -20 6 0 28 -9 50 -20 22 -11 45 -20 53 -20 8 0 26 -7 40 -15 15 -8
59 -26 97 -40 39 -14 88 -35 110 -45 22 -11 46 -20 52 -20 11 0 37 -11 138
-56 28 -12 47 -20 145 -54 19 -7 42 -16 51 -21 9 -4 54 -22 100 -39 46 -18
102 -41 125 -51 23 -10 48 -19 57 -19 9 0 18 -4 22 -9 3 -5 22 -15 43 -21 20
-6 51 -17 67 -25 46 -20 337 -132 365 -140 14 -4 34 -14 45 -21 11 -8 26 -14
35 -14 8 0 32 -9 53 -20 20 -11 44 -20 52 -20 8 0 32 -9 52 -20 21 -11 45 -20
53 -20 9 0 24 -6 35 -14 11 -7 37 -19 58 -26 22 -7 51 -18 65 -26 15 -8 34
-14 43 -14 8 0 24 -7 35 -15 10 -8 26 -15 34 -15 9 0 33 -9 54 -19 21 -11 51
-23 66 -26 15 -3 45 -15 66 -26 21 -10 43 -19 49 -19 6 0 28 -9 50 -20 22 -11
46 -20 55 -20 9 0 20 -4 25 -9 10 -9 91 -40 165 -63 19 -5 44 -17 55 -24 11
-8 28 -14 38 -14 10 0 32 -8 50 -17 18 -10 50 -23 72 -29 40 -12 107 -38 178
-68 l37 -16 0 1695 0 1695 -8000 0 -8000 0 0 -4935z m3920 -457 c133 -50 202
-73 270 -91 25 -7 54 -17 65 -23 11 -7 36 -15 55 -19 19 -4 44 -12 55 -18 11
-6 38 -17 60 -23 22 -7 72 -24 110 -39 39 -14 84 -30 100 -34 17 -4 44 -15 62
-24 18 -10 39 -17 48 -17 9 0 30 -7 47 -16 17 -9 51 -22 77 -29 25 -7 62 -18
81 -25 19 -8 58 -21 85 -30 122 -42 106 -37 232 -82 119 -42 169 -61 193 -71
49 -20 157 -59 300 -107 80 -27 177 -61 215 -75 39 -14 88 -32 110 -40 22 -7
72 -25 110 -40 39 -14 84 -30 100 -34 17 -5 58 -18 93 -30 35 -12 98 -26 140
-31 76 -10 272 -78 303 -106 8 -8 22 -14 30 -14 8 0 23 -6 34 -13 30 -20 139
-62 240 -92 50 -15 94 -31 100 -36 5 -5 17 -9 27 -9 9 0 42 -11 72 -24 29 -13
73 -27 97 -31 24 -4 54 -14 67 -23 19 -13 152 -63 243 -91 14 -5 34 -13 45
-19 32 -18 163 -68 288 -111 138 -48 224 -54 304 -22 26 10 74 28 107 40 33
12 78 31 100 42 22 10 46 19 53 19 7 0 30 9 50 19 20 11 62 29 92 41 30 12 69
28 85 36 28 12 53 22 145 54 19 7 54 21 78 31 23 11 49 19 57 19 8 0 29 9 47
20 18 11 41 20 50 20 10 0 37 9 60 19 24 10 68 29 98 41 30 12 73 31 96 41 23
11 45 19 51 19 5 0 28 9 51 20 22 11 46 20 51 20 10 0 38 12 147 61 23 11 48
19 56 19 8 0 23 7 34 15 10 8 25 15 32 15 7 0 38 11 68 25 30 14 60 25 67 25
7 0 17 4 22 9 6 5 73 31 150 56 77 26 172 61 210 77 39 16 115 45 170 63 55
19 138 48 185 65 47 17 105 37 130 45 70 21 142 46 175 60 17 7 46 16 65 20
19 4 40 11 45 16 6 4 29 12 50 18 22 5 112 34 200 64 252 86 258 88 302 97 23
5 50 14 60 19 10 6 45 17 78 26 33 9 89 24 125 34 36 11 90 26 120 35 30 8 64
20 75 25 20 9 83 31 165 56 25 8 76 25 115 39 39 15 73 22 78 17 13 -13 10
-690 -3 -891 -8 -104 -13 -447 -14 -845 l-2 -670 -31 -60 c-81 -157 -210 -288
-363 -369 -30 -16 -62 -35 -71 -42 -8 -8 -23 -14 -32 -14 -9 0 -19 -4 -22 -10
-3 -5 -38 -26 -78 -46 -100 -49 -207 -107 -237 -126 -37 -25 -198 -109 -350
-184 -74 -36 -147 -72 -162 -80 -14 -8 -31 -14 -38 -14 -12 0 -105 -39 -227
-96 -40 -19 -79 -34 -88 -34 -16 0 -102 -24 -140 -40 -11 -4 -47 -16 -80 -25
-33 -9 -70 -21 -83 -26 -13 -5 -33 -9 -45 -9 -12 0 -39 -6 -62 -14 -22 -8 -60
-19 -85 -26 -25 -7 -65 -18 -90 -26 -25 -7 -74 -20 -110 -29 -36 -9 -79 -21
-96 -26 -17 -5 -41 -9 -53 -9 -12 0 -31 -5 -41 -10 -25 -13 -173 -40 -224 -40
-21 0 -55 -4 -75 -9 -71 -19 -269 -51 -411 -67 -80 -9 -176 -20 -215 -26 -38
-5 -144 -13 -235 -17 -91 -5 -212 -14 -270 -20 -148 -15 -656 -17 -760 -4 -47
7 -152 17 -235 23 -148 10 -206 17 -420 46 -60 8 -180 23 -265 34 -85 11 -180
24 -210 30 -30 6 -80 15 -110 21 -30 6 -75 16 -100 24 -25 7 -70 18 -100 24
-162 33 -200 42 -255 61 -33 12 -80 25 -105 30 -124 26 -187 41 -224 54 -23 7
-81 26 -131 41 -49 15 -102 34 -117 41 -14 8 -35 14 -45 14 -11 0 -22 3 -26 6
-8 9 -227 85 -260 91 -15 3 -30 9 -33 14 -3 5 -18 9 -33 9 -16 0 -37 10 -50
24 -12 13 -32 26 -44 29 -58 13 -173 64 -344 152 -103 54 -190 100 -193 104
-3 4 -30 20 -60 34 -123 58 -221 129 -331 239 -35 34 -87 84 -114 109 -59 55
-126 163 -155 251 -20 60 -21 76 -15 353 3 160 10 430 16 600 7 211 7 392 0
565 -28 692 -32 883 -19 892 16 10 44 4 118 -24z"/>
</g>
</svg>
